<svg xmlns="http://www.w3.org/2000/svg"
shape-rendering="geometricPrecision"
width="4000" height="4000" viewBox="0 0 536 536">
  <metadata>null</metadata>

<path d="
M 75.285 441.238
C 81.783 440.851 88.409 441.305 94.926 441.253
C 102.543 441.191 111.188 440.552 117.968 444.688
C 129.812 451.912 129.464 470.149 117.603 477.235
C 112.416 480.335 106.476 481.328 100.512 481.43
C 97.872 481.476 95.091 481.036 92.477 481.324
C 92.431 486.134 92.477 490.946 92.446 495.757
C 92.428 498.745 92.121 502.116 92.792 505.043
C 94.118 507.087 97.651 507.444 99.875 507.524
C 100.197 508.217 100.295 509.062 100.223 509.826
C 98.439 510.193 96.33 509.785 94.504 509.786
C 90.001 509.788 85.498 509.721 80.994 509.739
C 79.515 509.744 78.039 509.858 76.559 509.869
C 76.168 509.872 75.409 510.007 75.122 509.623
C 74.933 509.372 75.111 508.333 75.115 508.06
C 76.937 506.442 80.923 507.526 81.697 504.389
C 82.135 502.61 81.909 500.578 81.9 498.762
C 81.883 495.507 81.882 492.252 81.885 488.997
C 81.897 478.405 81.907 467.813 82.011 457.221
C 82.036 454.626 82.085 452.025 81.999 449.431
C 81.961 448.285 82.122 446.803 81.362 445.851
C 79.965 444.1 77.336 443.858 75.27 443.634
C 75.198 442.826 75.235 442.047 75.285 441.238 Z
M 92.499 453.129
C 92.245 461.212 91.733 469.919 92.591 477.953
C 98.017 478.479 104.429 478.717 109.12 475.433
C 116.974 469.936 117.644 455.06 111.061 448.33
C 107.985 445.185 103.423 444.504 99.23 444.396
C 97.219 444.345 94.522 444.001 92.674 444.856
C 92.522 447.552 92.945 450.478 92.499 453.129 Z"
opacity="1" fill="rgb(77,42,23)" fill-rule="evenodd" />
<path d="
M 96.958 165.113
C 97.811 146.431 104.82 120.964 126.963 118.598
C 130.06 118.267 133.338 118.474 136.344 119.323
C 140.502 120.497 144.363 122.292 147.983 124.645
C 153.28 128.089 157.544 132.547 161.575 137.353
C 174.058 152.236 181.234 172.738 180.209 192.162
C 179.191 211.457 165.973 232.132 145.049 233.19
C 141.589 233.365 138.107 232.94 134.762 232.052
C 131.126 231.086 127.481 229.567 124.36 227.444
C 109.874 217.589 101.831 200.376 98.628 183.602
C 97.477 177.572 96.677 171.266 96.958 165.113 Z
M 133.021 127.137
C 133.801 129.205 136.806 130.206 138.641 131.367
C 142.334 133.702 145.906 136.723 149.076 139.727
C 155.321 145.644 160.884 152.714 165.246 160.13
C 166.654 162.525 168.099 164.926 169.349 167.408
C 170.008 168.717 170.496 170.549 171.537 171.611
C 171.705 170.355 171.156 169.217 170.898 168.017
C 170.154 164.554 168.978 161.151 167.624 157.88
C 163.375 147.609 156.633 137.514 146.811 131.823
C 142.491 129.32 137.877 128.002 133.021 127.137 Z"
opacity="1" fill="rgb(189,86,49)" fill-rule="evenodd" />
<path d="
M 186.035 288.009
C 184.953 286.482 183.924 285.016 183.031 283.374
C 183.014 283.343 182.166 282.17 182.568 282.026
C 182.864 281.921 183.101 282.358 183.367 282.525
C 185.518 284.215 187.273 286.374 189.529 287.99
C 192.513 290.842 196.112 292.959 199.384 295.451
C 201.188 296.825 203.255 298.848 205.622 299.054
C 210.864 299.509 216.473 299.127 221.697 298.57
C 223.37 298.391 227.018 297.178 228.484 297.941
C 227.915 299.058 226.002 299.319 224.917 299.77
C 222.132 300.929 219.299 301.902 216.338 302.52
C 215.151 302.767 212.856 302.927 212.049 303.827
C 214.22 305.738 216.945 306.988 219.454 308.382
C 221.949 309.767 224.541 311.625 227.471 311.859
C 231.539 312.182 235.926 310.915 240.01 310.677
C 244.017 310.443 248.009 310.44 252.016 310.61
C 252.628 310.636 255.479 310.665 255.48 311.334
C 253.442 312.592 250.288 313.02 247.971 313.624
C 242.324 315.096 236.607 316.347 230.852 317.321
C 219.478 319.246 208.136 319.805 196.613 319.756
C 185.584 319.709 174.548 319.142 163.751 316.674
C 158.58 315.491 153.419 314.279 148.398 312.549
C 146.689 311.96 144.845 311.549 143.325 310.529
C 142.272 307.813 143.725 303.94 142.017 301.475
C 135.033 299.153 128.476 296.098 122.699 291.432
C 120.796 289.896 118.62 288.56 117.437 286.366
C 122.461 287.777 127.045 290.668 131.987 292.377
C 134.649 293.297 138.814 293.592 141.014 295.36
C 142.214 296.324 142.808 298.111 143.635 299.373
C 145.371 302.021 147.667 304.875 149.857 307.161
C 151.892 309.285 154.651 309.046 157.308 309.697
C 157.859 309.832 159.458 310.552 159.987 310.21
C 156.437 306.521 152.608 302.946 149.29 299.029
C 147.078 296.417 145.418 293.339 143.042 290.87
C 139.851 287.552 136.26 284.647 133.11 281.282
C 125.35 272.994 118.199 261.698 116.792 250.208
C 118.41 252.259 119.565 254.688 120.931 256.92
C 123.248 260.708 125.955 264.296 128.886 267.631
C 130.082 268.99 131.422 270.188 132.646 271.512
C 133.056 271.956 133.579 272.822 134.212 272.945
C 134.108 270.736 133.098 268.327 132.732 266.11
C 131.892 261.027 131.54 255.103 132.465 250.015
C 133.38 250.414 133.308 252.1 133.427 253.018
C 133.776 255.719 134.59 258.633 135.512 261.193
C 137.186 265.842 139.271 270.262 141.549 274.645
C 143.88 279.131 145.921 283.5 149.418 287.243
C 154.36 292.531 161.587 296.099 167.887 299.464
C 171.936 301.627 176.166 304.094 180.692 305.09
C 184.128 305.846 187.517 306.228 191.038 306.337
C 192.752 306.391 195.37 305.985 196.931 306.669
C 197.544 307.387 193.927 307.153 193.095 307.18
C 190.493 307.266 187.605 307.557 185.023 307.236
C 183.747 307.077 181.96 306.491 180.815 307.297
C 181.72 307.933 183.034 308.111 184.086 308.448
C 186.205 309.128 188.31 309.819 190.446 310.456
C 196.302 312.203 201.148 315.679 207.52 315.265
C 209.733 315.121 211.925 314.742 214.11 314.428
C 214.496 314.373 215.892 314.741 215.996 314.256
C 212.747 311.667 208.743 310.291 205.495 307.674
C 203.31 305.913 201.521 303.718 199.426 301.855
C 196.619 299.361 193.654 297.092 191.104 294.314
C 189.277 292.325 187.86 289.969 186.035 288.009 Z"
opacity="1" fill="rgb(187,86,53)" fill-rule="evenodd" />
<path d="
M 342.941 288.968
C 345.919 287.14 348.726 283.894 351.033 281.291
C 352.281 279.883 353.446 278.112 355.178 277.295
C 355.647 277.954 353.412 280.546 353.024 281.134
C 350.521 284.927 348.099 288.696 345.146 292.158
C 333.957 303.444 321.535 313.005 307.213 320.058
C 300.917 323.159 294.275 325.746 287.775 328.391
C 285.287 329.403 282.581 330.139 280.208 331.385
C 280.653 332.395 282.794 332.397 283.843 332.657
C 287.763 333.628 291.82 334.37 295.815 334.958
C 298.949 335.42 302.283 336.112 305.465 335.858
C 307.831 335.67 310.142 334.792 312.443 334.262
C 317.707 333.05 323.155 331.634 328.236 329.795
C 333.682 327.823 339.3 325.162 345.101 324.658
C 346.654 324.523 348.476 324.124 350.005 324.415
C 349.975 324.926 349.323 325.25 348.96 325.571
C 347.887 326.52 346.672 327.323 345.504 328.151
C 342.563 330.236 339.334 332.135 336.184 333.889
C 334.335 334.919 332.327 335.804 330.738 337.221
C 332.072 337.713 334.305 337.225 335.721 337.125
C 337.339 337.009 339.408 337.277 340.94 336.773
C 342.342 336.312 343.75 335.148 345.004 334.369
C 348.319 332.309 351.543 330.08 354.735 327.835
C 356.268 326.756 357.707 324.917 359.42 324.176
C 360.75 323.601 362.588 323.74 364.016 323.636
C 366.463 323.458 368.956 323.115 371.37 322.681
C 377.414 321.595 383.363 319.16 389.458 318.532
C 389.786 321.542 394.843 320.174 396.026 318.269
C 396.268 318.255 397.678 318.069 397.672 318.42
C 397.666 318.794 396.543 319.489 396.282 319.681
C 395.084 320.567 393.872 321.49 392.763 322.487
C 389.089 325.654 384.643 327.93 380.474 330.364
C 351.3 347.403 315.458 346.368 283.362 339.905
C 272.72 337.762 261.717 334.364 251.7 330.179
C 246.856 328.155 241.574 324.149 236.427 326.988
C 236.278 328.386 239.853 329.59 241.035 330.094
C 245.434 331.973 249.984 333.461 254.402 335.298
C 255.09 335.584 258.319 336.302 258.508 336.81
C 255.8 338.219 252.375 338.873 249.393 339.53
C 244.326 340.647 239.239 341.597 234.116 342.414
C 220.802 344.535 207.458 345.994 193.949 345.173
C 187.552 344.783 181.25 343.681 174.956 342.555
C 168.441 341.388 162.137 339.486 156.086 336.821
C 153.271 335.582 152.253 334.415 150.511 331.935
C 149.976 331.174 149.151 330.191 149.043 329.277
C 156.072 331.882 164.179 333.268 171.634 333.905
C 174.343 334.136 177.047 334.304 179.765 334.424
C 181.262 334.49 182.997 334.423 184.362 335.137
C 187.153 336.597 189.867 339.284 192.976 339.996
C 194.897 340.436 197.064 339.962 199.006 339.882
C 200.539 339.819 202.067 339.678 203.598 339.589
C 203.884 339.573 205.092 339.663 204.844 339.196
C 203.077 337.706 200.085 337.132 197.973 336.192
C 194.019 334.431 190.225 331.922 185.919 331.059
C 181.898 330.253 177.619 330.643 173.548 330.097
C 160.088 328.291 147.667 324.739 136.431 316.894
C 132.208 313.945 127.542 309.807 125.346 305.054
C 128.134 306.364 130.605 308.56 133.241 310.188
C 137.722 312.955 142.637 315.074 147.598 316.809
C 172.323 325.455 198.589 326.152 224.37 322.819
C 233.523 321.636 242.826 320.269 251.762 317.91
C 255.253 316.988 258.831 316.179 262.231 314.954
C 264.01 314.313 265.842 313.159 267.71 312.863
C 269.115 312.64 270.47 313.349 271.752 313.809
C 273.536 314.45 275.428 314.983 277.293 315.314
C 277.729 315.391 279.945 315.416 279.955 315.915
C 274.464 317.886 269.195 320.489 263.458 321.829
C 262.319 322.096 258.161 322.623 258.339 323.907
C 262.509 325.332 266.576 324.882 270.864 324.29
C 277.987 323.309 284.778 321.278 291.584 319.013
C 294.263 318.122 296.94 317.243 299.545 316.145
C 299.899 315.995 301.88 315.667 301.486 314.869
C 301.359 314.611 300.472 314.622 300.257 314.608
C 299.042 314.533 297.815 314.45 296.6 314.429
C 291.561 314.34 286.914 312.868 282.009 311.958
C 271.366 309.984 260.573 305.245 252.293 298.198
C 249.358 295.701 246.047 292.067 244.575 288.45
C 243.615 286.089 245.46 283.346 245.973 281.018
C 246.98 276.451 246.88 271.677 248.06 267.163
C 248.556 265.269 250.62 262.883 250.612 261.07
C 244.985 265.294 245.339 273.039 243.441 279.161
C 242.725 281.468 241.798 284.655 239.677 286.08
C 237.407 287.605 234.749 286.471 233.19 284.534
C 230.971 281.777 229.534 278.111 228.641 274.72
C 228.277 273.339 227.801 271.814 228.083 270.373
C 228.699 267.229 233.396 264.916 235.749 263.148
C 242.845 257.818 249.084 253.145 258.426 254.714
C 260.602 255.08 262.862 255.714 264.906 256.553
C 265.738 256.895 266.545 257.598 267.439 257.719
C 273.287 255.019 281.041 251.995 287.469 254.211
C 292.432 255.922 296.74 259.65 301.008 262.606
C 302.902 263.917 305.286 265.372 306.03 267.683
C 306.965 270.584 305.198 274.798 304.212 277.507
C 303.457 279.581 302.453 282.082 300.661 283.489
C 298.2 285.42 295.314 283.927 293.628 281.795
C 290.361 277.666 290.53 271.703 288.736 266.944
C 287.999 264.986 286.914 263.033 285.455 261.526
C 285.259 261.324 283.542 260.105 283.533 260.127
C 283.449 260.353 284.165 261.347 284.348 261.624
C 285.295 263.049 286.094 264.518 286.559 266.177
C 287.634 270.009 287.697 274.086 288.557 277.971
C 289.034 280.124 290.319 282.371 290.459 284.555
C 290.604 286.823 289.045 289.139 287.921 291
C 285.087 295.692 281.192 299.574 278.222 304.126
C 278.978 305.213 281.495 305.512 282.715 305.792
C 286.765 306.72 290.961 307.209 295.12 307.265
C 302.637 307.366 311.263 307.176 318.489 304.894
C 324.004 303.153 328.951 299.537 333.597 296.205
C 336.739 293.953 340.207 291.716 342.941 288.968 Z
M 212.872 331.014
C 212.864 331.889 213.65 331.865 214.403 332.106
C 216.043 332.632 217.718 333.167 219.336 333.757
C 222.154 334.786 225.102 335.666 228.126 335.723
C 230.718 335.771 233.277 335.048 235.848 334.832
C 237.059 334.73 238.293 334.448 239.494 334.389
C 240.297 334.35 241.221 334.633 241.942 334.187
C 240.585 332.59 236.433 332.497 234.463 332.052
C 231.944 331.484 229.615 330.046 227.059 329.71
C 224.727 329.403 222.205 330.146 219.904 330.493
C 217.573 330.844 215.205 330.683 212.872 331.014 Z
M 253.821 276.516
C 252.656 279.46 257.783 282.097 258.792 278.86
C 259.798 275.637 255.209 273.005 253.821 276.516 Z
M 261.789 294.006
C 260.998 297.241 265.726 300.871 268.553 301.562
C 270.275 299.766 274.56 297.953 274.403 294.972
C 274.321 293.404 272.367 292.244 271.018 291.948
C 268.051 291.299 263.576 291.053 261.789 294.006 Z
M 275.735 276.464
C 275.558 277.104 275.477 277.122 275.587 277.786
C 276.303 282.141 282.994 278.85 280.02 275.368
C 279.599 274.875 279.126 274.507 278.517 274.303
C 277.146 274.395 276.408 275.351 275.735 276.464 Z
M 385.447 321.321
C 385.921 322.823 388.024 321.65 388.973 321.239
C 389.091 321.188 390.333 320.797 390.248 320.776
C 389.757 320.654 389.035 320.883 388.486 320.803
C 388.029 320.735 387.616 320.783 387.166 320.872
C 386.585 320.987 385.997 321.104 385.447 321.321 Z"
opacity="1" fill="rgb(190,88,52)" fill-rule="evenodd" />
<path d="
M 130.947 499.106
C 132.44 488.044 144.199 486.551 152.812 483.215
C 154.599 482.522 157.817 482.188 159.214 480.836
C 159.483 478.561 159.379 476.107 159.353 473.814
C 159.328 471.633 159.015 469.327 157.604 467.575
C 154.85 464.156 148.025 463.533 144.777 466.616
C 142.084 469.174 143.704 473.856 140.962 476.302
C 139.332 477.756 136.107 477.919 134.493 476.4
C 130.474 472.618 136.239 466.62 139.456 464.814
C 146.306 460.966 159.355 459.975 165.257 466.074
C 168.602 469.531 168.598 474.252 168.614 478.763
C 168.636 484.841 168.628 490.919 168.638 496.997
C 168.644 500.143 168.007 507.065 172.931 506.897
C 174.145 506.856 175.535 506.484 176.68 506.1
C 177.006 506.73 177.117 507.668 176.859 508.34
C 173.604 511.543 165.991 512.104 162.568 508.978
C 161.351 507.867 160.766 504.645 159.469 504.111
C 155.317 508.845 148.899 511.628 142.582 511.173
C 135.916 510.693 130.423 506.185 130.947 499.106 Z
M 141.442 495.582
C 141.159 496.854 141.105 498.174 141.245 499.47
C 142.086 507.228 150.841 507.506 155.869 503.478
C 160.373 499.87 159.241 494.617 159.23 489.431
C 159.226 487.753 159.758 485.415 159.291 483.83
C 152.628 487.091 144.36 487.787 141.442 495.582 Z"
opacity="1" fill="rgb(76,40,22)" fill-rule="evenodd" />
<path d="
M 382.755 270.164
C 377.727 273.968 373.173 278.302 367.529 281.28
C 364.451 269.187 354.349 262.47 345.383 254.958
C 340.689 251.026 336.205 246.987 332.106 242.432
C 316.653 225.258 311.936 198.327 288.457 189.428
C 269.577 182.273 244.848 184.931 230.643 200.211
C 225.821 205.398 222.33 211.738 218.661 217.742
C 214.099 225.21 209.101 232.551 203.153 238.998
C 198.543 243.996 193.334 248.559 187.969 252.732
C 181.188 258.008 173.898 262.88 169.107 270.189
C 166.476 274.203 164.367 278.83 163.326 283.527
C 162.862 285.618 163.068 287.88 162.571 289.921
C 157.519 286.62 152.344 283.007 148.361 278.423
C 147.348 277.256 145.136 275.716 144.969 274.142
C 145.332 270.96 147.477 267.364 148.84 264.484
C 156.939 247.376 174.27 239.281 186.959 226.265
C 193.163 219.902 198.212 212.629 203.02 205.193
C 207.948 197.571 212.503 189.66 219.117 183.31
C 243.881 159.537 289.05 158.492 314.428 181.862
C 325.089 191.679 330.647 205.197 337.913 217.427
C 341.849 224.053 346.756 230.344 352.321 235.681
C 360.932 243.939 371.11 250.186 378.194 259.967
C 379.775 262.15 381.07 264.558 382.363 266.918
C 383.016 268.109 383.82 269.011 382.755 270.164 Z"
opacity="1" fill="rgb(191,87,51)" fill-rule="evenodd" />
<path d="
M 156.085 339.656
C 158.964 340.495 161.468 342.366 164.297 343.392
C 171.03 345.834 178.257 347.6 185.345 348.619
C 191.08 349.443 196.82 350.085 202.624 350.065
C 205.525 350.055 208.729 349.332 211.59 349.654
C 213.904 349.915 216.492 351.931 218.637 352.853
C 224.147 355.221 229.826 357.128 235.63 358.633
C 237.92 359.227 240.214 359.894 242.543 360.317
C 242.959 360.392 245.055 360.391 244.659 361.18
C 240.81 362.458 236.53 363.104 232.553 363.913
C 212.846 367.924 191.417 367.012 173.796 356.392
C 168.548 353.23 163.974 349.507 159.968 344.853
C 158.559 343.216 156.983 341.636 156.085 339.656 Z"
opacity="1" fill="rgb(186,84,48)" fill-rule="evenodd" />
<path d="
M 162.571 289.921
C 163.068 287.88 162.862 285.618 163.326 283.527
C 164.367 278.83 166.476 274.203 169.107 270.189
C 173.898 262.88 181.188 258.008 187.969 252.732
C 193.334 248.559 198.543 243.996 203.153 238.998
C 209.101 232.551 214.099 225.21 218.661 217.742
C 222.33 211.738 225.821 205.398 230.643 200.211
C 244.848 184.931 269.577 182.273 288.457 189.428
C 311.936 198.327 316.653 225.258 332.106 242.432
C 336.205 246.987 340.689 251.026 345.383 254.958
C 354.349 262.47 364.451 269.187 367.529 281.28
C 373.173 278.302 377.727 273.968 382.755 270.164
C 383.503 269.853 383.502 270.764 384.222 270.843
C 384.829 270.91 385.165 270.224 385.809 270.38
C 386.412 270.526 386.778 271.424 387.354 271.367
C 380.647 278.996 371.887 284.239 362.812 288.553
C 357.962 290.859 352.521 291.896 348.277 295.264
C 348.617 294.23 344.968 293.516 345.146 292.158
C 348.099 288.696 350.521 284.927 353.024 281.134
C 353.412 280.546 355.647 277.954 355.178 277.295
C 353.446 278.112 352.281 279.883 351.033 281.291
C 348.726 283.894 345.919 287.14 342.941 288.968
C 339.65 285.865 336.739 282.336 333.38 279.273
C 326.481 272.98 319.37 266.991 314.038 259.215
C 310.715 254.37 307.669 249.202 305.126 243.905
C 301.954 237.297 299.028 230.156 293.688 224.929
C 289.54 220.868 284.138 218.407 278.567 217.055
C 275.188 216.235 271.826 215.712 268.337 215.713
C 257.841 215.718 247.228 219.742 240.4 227.911
C 234.957 234.424 231.679 242.6 227.164 249.745
C 222.514 257.106 217.044 263.305 210.582 269.102
C 205.227 273.906 199.255 278.056 193.754 282.7
C 192.621 283.658 188.083 286.224 189.529 287.99
C 187.273 286.374 185.518 284.215 183.367 282.525
C 183.101 282.358 182.864 281.921 182.568 282.026
C 182.166 282.17 183.014 283.343 183.031 283.374
C 183.924 285.016 184.953 286.482 186.035 288.009
C 185.433 288.113 185.425 289.181 185.397 289.664
C 184.603 291.599 182.683 294.658 183.227 296.84
C 183.418 297.61 184.178 298.206 184.52 298.903
C 181.412 298.391 178.619 297.52 175.615 296.633
C 174.442 296.287 173.27 295.798 172.049 295.652
C 171.858 295.63 171.035 295.426 171.096 295.793
C 168.411 294.488 164.479 292.24 162.571 289.921 Z"
opacity="1" fill="rgb(252,237,198)" fill-rule="evenodd" />
<path d="
M 170.47 88.123
C 171.129 69.789 175.858 51.561 187.509 37.069
C 194.556 28.305 205.607 22.244 217.079 24.724
C 228.075 27.101 236.685 35.672 242.398 44.947
C 252.929 62.045 258.107 82.322 257.335 102.371
C 257.043 109.956 255.641 117.728 252.945 124.838
C 246.951 140.651 233.574 154.112 215.542 152.588
C 211.754 152.268 207.899 151.093 204.411 149.623
C 199.563 147.58 195.157 144.543 191.245 141.045
C 176.818 128.148 169.786 107.174 170.47 88.123 Z
M 222.57 38.575
C 223.476 40.285 224.836 41.465 226.031 42.957
C 227.754 45.109 229.322 47.375 230.889 49.641
C 235.566 56.405 239.471 63.908 242.322 71.624
C 244.15 76.571 245.741 81.591 247.114 86.683
C 247.553 88.311 247.841 89.985 248.253 91.62
C 248.395 92.188 248.462 93.225 248.871 93.633
C 249.478 92.52 249.146 90.746 249.136 89.505
C 249.111 86.16 248.779 82.895 248.404 79.582
C 247.006 67.234 242.624 54.553 233.519 45.754
C 230.496 42.833 226.701 39.654 222.57 38.575 Z"
opacity="1" fill="rgb(190,86,50)" fill-rule="evenodd" />
<path d="
M 184.52 298.903
C 188.171 299.707 190.965 300.292 194.039 302.573
C 193.947 302.908 192.489 302.125 192.274 302.049
C 191.041 301.611 189.797 301.775 188.527 301.615
C 182.256 300.825 176.659 298.633 171.096 295.793
C 171.035 295.426 171.858 295.63 172.049 295.652
C 173.27 295.798 174.442 296.287 175.615 296.633
C 178.619 297.52 181.412 298.391 184.52 298.903 Z"
opacity="0.996" fill="rgb(173,111,87)" fill-rule="evenodd" />
<path d="
M 178.966 464.126
C 179.016 463.404 178.973 463.766 179.099 463.04
C 180.917 462.528 183.072 463.112 184.948 463.038
C 188.139 462.911 191.31 463.029 194.501 463.045
C 196.177 463.054 198.055 462.64 199.696 463.004
C 199.898 463.641 199.961 464.169 199.938 464.833
C 198.514 465.635 196.776 465.674 195.343 466.508
C 194.269 468.475 196.24 471.959 196.973 473.863
C 199.255 479.788 201.476 485.754 203.694 491.702
C 204.355 493.477 205.042 495.253 205.637 497.05
C 205.809 497.57 205.996 498.865 206.508 499.035
C 209.23 490.959 212.813 483.19 215.821 475.249
C 215.711 473.226 214.234 470.767 213.41 468.931
C 213.044 468.116 212.686 467.133 211.948 466.575
C 210.796 465.704 208.757 465.276 207.363 464.984
C 207.422 462.153 209.991 462.91 212.119 462.948
C 215.908 463.016 219.72 462.983 223.509 462.918
C 225.161 462.89 227.372 462.436 228.943 462.961
C 229.044 463.645 229.146 464.202 229.064 464.883
C 227.236 465.829 225.155 465.666 223.555 467.125
C 223.333 469.633 225.243 472.821 226.15 475.11
C 228.339 480.631 230.409 486.201 232.513 491.756
C 233.174 493.503 233.902 495.236 234.533 496.992
C 234.693 497.439 234.958 498.992 235.395 499.132
C 236.411 497.061 236.965 494.661 237.718 492.478
C 239.429 487.525 241.338 482.637 243.152 477.72
C 244.314 474.569 246.326 470.615 245.801 467.182
C 244.341 465.415 241.976 465.249 239.844 465.083
C 239.91 464.301 239.888 463.5 240.359 462.855
C 243.903 462.921 247.462 462.936 251.008 462.922
C 252.658 462.916 254.558 462.591 256.17 462.875
C 256.533 463.485 256.554 464.111 256.407 464.787
C 254.849 465.632 252.713 465.646 251.437 466.939
C 250.066 468.328 249.461 470.616 248.794 472.397
C 247.539 475.746 246.275 479.087 245.027 482.441
C 241.531 491.842 238.096 501.259 234.702 510.703
C 233.542 511.123 231.844 510.711 230.617 510.793
C 229.947 510.314 229.729 509.008 229.426 508.251
C 228.641 506.29 227.905 504.307 227.069 502.367
C 223.806 494.789 221.275 486.836 217.814 479.365
C 216.333 481.598 215.604 484.514 214.554 486.979
C 212.603 491.559 210.616 496.196 208.972 500.897
C 207.832 504.16 206.768 507.661 205.215 510.753
C 204.361 511.102 202.094 511.072 201.252 510.669
C 197.214 501.499 193.702 492.034 189.981 482.727
C 188.481 478.974 187.289 475.097 185.713 471.374
C 185.079 469.875 184.441 467.97 183.189 466.864
C 181.954 465.773 180.325 465.843 178.973 465.061
C 178.933 464.447 178.936 464.759 178.966 464.126 Z"
opacity="1" fill="rgb(76,41,23)" fill-rule="evenodd" />
<path d="
M 221.103 348.963
C 223.432 347.777 226.744 348.019 229.333 347.686
C 233.335 347.171 238.023 345.649 242.048 346.224
C 243.809 346.476 245.48 347.311 247.203 347.738
C 252.465 349.042 258.129 350.393 263.566 349.981
C 267.091 349.714 270.593 349.221 274.115 348.939
C 274.543 348.905 277.403 348.94 277.427 348.551
C 275.276 347.622 272.978 347.427 270.71 346.872
C 265.36 345.564 260.067 344.059 254.686 342.9
C 255.649 342.018 258.442 341.453 259.738 340.996
C 261.125 340.506 262.452 339.293 263.952 339.243
C 266.47 339.159 269.579 340.816 272.011 341.481
C 278.102 343.146 284.129 344.767 290.345 345.907
C 293.424 346.471 296.537 346.727 299.62 347.23
C 300.317 347.344 302.616 347.4 302.446 348.334
C 301.379 349.122 299.786 349.435 298.545 349.888
C 294.153 351.491 289.668 352.789 285.147 353.976
C 269.267 358.148 253.289 358.311 237.273 354.645
C 233.548 353.792 229.923 352.509 226.337 351.2
C 224.539 350.545 222.606 350.196 221.103 348.963 Z"
opacity="1" fill="rgb(185,87,52)" fill-rule="evenodd" />
<path d="
M 261.976 442.109
C 261.975 441.89 261.974 441.671 261.973 441.451
C 263.487 440.707 265.704 441.063 267.371 441.083
C 270.889 441.124 274.557 440.607 278.049 440.868
C 281.305 443.962 283.661 448.596 286.449 452.144
C 293.747 461.429 300.871 470.869 307.905 480.358
C 310.834 484.309 313.49 489.469 317.089 492.806
C 317.358 492.833 317.034 491.112 316.991 490.851
C 316.772 489.527 316.814 488.076 316.803 486.735
C 316.771 482.824 316.821 478.911 316.827 474.999
C 316.838 468.232 316.787 461.457 316.889 454.69
C 316.927 452.178 317.639 448.105 316.117 445.933
C 314.71 443.923 312.41 443.93 310.225 443.59
C 309.438 443.011 309.542 441.836 310.013 441.081
C 315.71 440.48 322.232 440.478 327.949 440.897
C 328.069 441.686 328.404 442.433 328.3 443.24
C 326.127 443.285 322.927 444.12 321.746 446.096
C 320.957 447.416 321.105 449.252 321.102 450.729
C 321.097 453.257 320.934 455.768 320.929 458.298
C 320.906 468.866 321.087 479.438 320.932 490.004
C 320.832 496.736 320.075 503.91 320.791 510.605
C 319.685 510.806 318.23 510.844 317.144 510.562
C 312.723 505.182 308.863 499.312 304.652 493.765
C 298.008 485.012 291.378 476.245 284.79 467.452
C 282.047 463.791 279.182 460.206 276.506 456.496
C 275.783 455.493 274.69 453.054 273.452 452.802
C 272.966 466.943 273.225 481.158 273.327 495.307
C 273.36 499.987 272.207 506.139 278.082 507.327
C 278.923 507.498 279.827 507.701 280.68 507.628
C 280.865 508.393 280.826 509.115 280.837 509.895
C 274.715 510.594 268.363 509.668 262.197 510.177
C 262.101 509.323 262.103 508.495 262.072 507.636
C 264.388 507.471 268.009 507.22 269.099 504.74
C 269.715 503.34 269.581 501.428 269.621 499.927
C 269.709 496.621 269.688 493.312 269.687 490.005
C 269.681 479.046 269.73 468.086 269.656 457.128
C 269.637 454.215 270.418 449.384 268.997 446.75
C 267.778 444.488 264.497 443.885 262.189 443.737
C 261.79 443.336 261.953 442.632 261.976 442.109 Z"
opacity="1" fill="rgb(73,40,22)" fill-rule="evenodd" />
<path d="
M 280.956 94.615
C 282.042 75.864 287.358 56.969 298.562 41.681
C 304.416 33.692 312.487 26.602 322.555 24.935
C 335.291 22.827 346.482 30.878 353.409 40.828
C 364.424 56.65 368.766 76.537 367.659 95.603
C 366.598 113.879 358.274 132.446 343.625 143.749
C 339.863 146.652 335.698 149.044 331.229 150.685
C 327.693 151.983 323.793 152.92 320.021 153.081
C 300.928 153.899 288.489 138.145 283.806 121.243
C 281.441 112.711 280.443 103.457 280.956 94.615 Z
M 289.474 85.099
C 289.178 87.868 289.13 91.127 289.757 93.853
C 290.084 94.066 290.347 92.327 290.389 92.142
C 290.81 90.289 291.138 88.417 291.558 86.562
C 292.636 81.808 294.123 77.069 295.903 72.531
C 299.114 64.345 303.095 56.724 307.83 49.322
C 309.246 47.11 310.846 44.975 312.567 42.991
C 313.53 41.881 314.998 40.783 315.42 39.348
C 310.618 40.186 305.668 44.941 302.658 48.525
C 296.611 55.725 292.875 64.318 290.992 73.512
C 290.201 77.372 290.013 81.217 289.474 85.099 Z"
opacity="1" fill="rgb(190,86,50)" fill-rule="evenodd" />
<path d="
M 282.984 359.118
C 290.402 357.508 297.859 354.929 304.934 352.195
C 307.607 351.162 310.333 349.054 313.143 348.536
C 316.032 348.003 319.572 348.766 322.529 348.775
C 327.987 348.791 333.472 348.381 338.894 347.771
C 348.889 346.646 358.959 344.604 368.295 340.772
C 373.221 338.75 377.607 335.92 382.268 333.417
C 382.431 333.428 380.837 336.282 380.631 336.599
C 379.36 338.56 378.106 340.53 376.696 342.397
C 370.94 350.018 363.204 355.638 354.618 359.679
C 331.644 370.492 306.192 365.079 282.743 359.518
C 282.823 359.385 282.903 359.251 282.984 359.118 Z"
opacity="1" fill="rgb(187,85,51)" fill-rule="evenodd" />
<path d="
M 297.53 329.453
C 305.764 325.768 313.861 321.569 321.643 316.989
C 325.483 314.729 328.998 311.341 333.103 309.599
C 334.826 308.867 337.065 309.163 338.911 308.948
C 342.414 308.541 345.903 307.797 349.325 306.957
C 360.604 304.189 371.127 299.923 380.726 293.317
C 389.37 287.369 396.9 278.698 402.907 270.176
C 404.644 267.712 406.225 265.031 407.423 262.259
C 407.802 261.383 408.338 259.436 409.34 259.187
C 409.871 261.475 408.065 265.28 407.442 267.507
C 405.397 274.824 401.079 281.655 396.239 287.451
C 394.475 289.564 392.409 291.419 390.677 293.554
C 389.405 295.764 387.636 297.017 385.671 298.774
C 382.312 301.777 378.938 304.76 375.232 307.327
C 373.628 308.438 371.845 309.483 370.096 310.35
C 369.256 310.766 368.454 310.95 367.848 311.749
C 368.106 312.224 369.915 311.836 370.449 311.825
C 373.056 311.771 375.703 311.523 378.283 311.145
C 381.483 310.677 383.624 307.892 385.94 305.897
C 390.613 301.869 395.815 298.501 400.078 293.988
C 401.323 292.67 402.491 291.273 403.598 289.838
C 404.11 289.175 404.784 288.113 405.569 287.792
C 405.659 289.211 404.409 291.109 403.898 292.394
C 401.876 297.488 398.981 301.988 394.992 305.757
C 392.939 307.696 389.81 309.321 388.887 312.043
C 385.619 314.385 381.327 315.402 377.51 316.455
C 367.957 319.091 358.266 319.189 348.475 320.045
C 345.447 320.31 342.382 320.073 339.365 320.481
C 336.534 320.864 333.984 322.582 331.39 323.683
C 327.536 325.319 323.449 326.555 319.398 327.604
C 314.036 328.992 308.853 330.24 303.311 330.587
C 301.462 330.702 298.664 331.021 297.128 329.858
C 297.262 329.723 297.396 329.588 297.53 329.453 Z"
opacity="1" fill="rgb(189,89,54)" fill-rule="evenodd" />
<path d="
M 335.925 483.608
C 337.666 472.058 345.127 462.581 357.4 461.716
C 367.227 461.023 376.146 466.254 378.297 476.264
C 378.697 478.122 379.186 480.632 378.666 482.505
C 375.357 483.254 371.387 482.702 368.004 482.69
C 360.795 482.665 353.52 482.487 346.326 482.902
C 346.098 489.003 347.253 495.708 351.375 500.45
C 356.563 506.419 366.481 506.244 372.762 502.29
C 374.415 501.249 375.7 499.693 376.989 498.255
C 377.69 498.354 378.591 498.799 378.82 499.52
C 377.784 502.305 375.189 504.959 372.845 506.704
C 364.92 512.6 353.752 512.679 345.584 507.224
C 337.861 502.066 335.015 492.496 335.925 483.608 Z
M 346.937 477.08
C 346.813 477.792 346.738 478.508 346.606 479.22
C 348.372 479.966 351.101 479.457 353.01 479.456
C 356.51 479.453 360.01 479.452 363.51 479.459
C 365.123 479.462 367.107 479.716 368.675 479.328
C 368.623 475.721 368.499 471.799 366.456 468.677
C 363.078 463.513 355.37 463.775 351.321 467.956
C 348.813 470.545 347.932 473.75 346.937 477.08 Z"
opacity="1" fill="rgb(73,39,22)" fill-rule="evenodd" />
<path d="
M 348.277 295.264
C 352.521 291.896 357.962 290.859 362.812 288.553
C 371.887 284.239 380.647 278.996 387.354 271.367
C 391.145 267.678 394.166 262.763 396.609 258.11
C 397.586 256.249 398.327 252.189 400.055 251.065
C 400.238 252.929 399.713 254.645 399.391 256.467
C 398.449 261.795 396.396 267.116 393.296 271.562
C 391.387 274.3 388.6 276.867 387.127 279.85
C 387.147 280.693 387.313 281.498 387.268 282.345
C 385.29 284.684 381.58 286.437 379.035 288.137
C 375.229 290.68 371.284 293.267 367.101 295.152
C 361.927 297.484 356.494 298.83 351.105 300.534
C 348.056 301.498 344.956 302.274 341.91 303.261
C 341.149 303.507 339.642 304.545 338.869 303.999
C 339.866 303.066 341.072 302.475 342.103 301.58
C 344.292 299.68 346.296 297.386 348.277 295.264 Z"
opacity="1" fill="rgb(187,91,57)" fill-rule="evenodd" />
<path d="
M 351.43 187.608
C 351.941 181.043 353.728 174.426 356.096 168.3
C 362.928 150.627 375.139 132.184 393.44 124.795
C 396.948 123.379 400.616 122.527 404.383 122.228
C 406.943 122.025 409.576 122.255 412.072 122.86
C 429.368 127.052 436.23 147.442 436.69 163.31
C 436.779 166.365 436.768 169.422 436.562 172.473
C 435.034 195.121 424.944 220.955 404.219 232.634
C 400.31 234.837 396.184 236.484 391.743 237.234
C 388.184 237.834 384.636 237.833 381.083 237.193
C 378.096 236.655 375.238 235.729 372.522 234.373
C 355.075 225.665 350.026 205.617 351.43 187.608 Z
M 361.508 171.755
C 361.454 171.91 361.399 172.066 361.345 172.222
C 361.612 172.743 363.071 169.987 363.24 169.706
C 364.456 167.682 365.71 165.694 366.975 163.701
C 370.584 158.018 374.971 152.798 379.707 148.021
C 384.276 143.412 389.305 139.051 394.883 135.701
C 397.227 134.293 399.795 132.567 402.413 131.751
C 402.636 131.682 404.485 130.863 403.792 130.447
C 400.502 130.906 397.288 131.147 394.099 132.204
C 382.078 136.189 373.376 145.738 367.53 156.64
C 364.912 161.521 363.691 166.762 361.508 171.755 Z"
opacity="1" fill="rgb(189,86,49)" fill-rule="evenodd" />
<path d="
M 385.447 321.321
C 385.997 321.104 386.585 320.987 387.166 320.872
C 387.616 320.783 388.029 320.735 388.486 320.803
C 389.035 320.883 389.757 320.654 390.248 320.776
C 390.333 320.797 389.091 321.188 388.973 321.239
C 388.024 321.65 385.921 322.823 385.447 321.321 Z"
opacity="1" fill="rgb(219,132,91)" fill-rule="evenodd" />
<path d="
M 388.489 496.113
C 388.523 495.585 388.504 495.91 388.543 495.139
C 389.331 494.901 390.162 494.714 390.991 494.753
C 391.884 495.891 392.153 497.742 392.69 499.095
C 394.011 502.427 396.011 505.29 399.278 506.954
C 405.509 510.127 416.828 507.178 414.477 498.346
C 413.302 493.934 408.944 492.393 405.161 490.805
C 398.544 488.027 389.979 484.97 389.437 476.501
C 389.318 474.634 389.603 472.657 390.149 470.871
C 390.835 468.634 392.374 466.632 394.19 465.186
C 396.412 463.416 399.072 462.45 401.862 462.034
C 404.757 461.602 407.964 461.565 410.821 462.268
C 412.086 462.58 414.494 463.924 415.711 463.67
C 416.814 462.822 417.551 461.888 419.049 462.29
C 419.828 465.23 419.347 468.479 419.397 471.497
C 419.414 472.526 419.85 474.384 419.334 475.276
C 418.742 475.336 418.148 475.37 417.557 475.443
C 414.844 471.381 414.226 466.924 408.963 465.162
C 403.003 463.166 394.712 467.114 397.685 474.363
C 399.017 477.611 402.441 478.905 405.392 480.266
C 410.762 482.742 416.818 484.547 420.3 489.72
C 426.049 498.263 419.682 508.381 410.698 510.679
C 406.495 511.753 401.937 511.763 397.808 510.369
C 395.883 509.72 394.203 508.622 392.338 507.866
C 391.71 508.718 391.459 509.762 391.081 510.745
C 390.441 511.148 389.443 510.65 388.831 510.369
C 388.356 508.906 388.687 507.036 388.676 505.503
C 388.652 502.393 388.371 499.211 388.489 496.113 Z"
opacity="1" fill="rgb(74,39,21)" fill-rule="evenodd" />
<path d="
M 389.458 318.532
C 391.799 318.035 393.799 317.41 396.026 318.269
C 394.843 320.174 389.786 321.542 389.458 318.532 Z"
opacity="1" fill="rgb(219,132,91)" fill-rule="evenodd" />
<path d="
M 428.986 465.126
C 429.026 464.629 429.101 464.139 429.166 463.645
C 429.62 463.102 431.166 463.228 431.888 463.095
C 433.16 462.861 434.275 462.268 435.345 461.563
C 439.957 458.528 441.541 453.568 443.347 448.7
C 444.18 448.364 445.089 448.54 445.96 448.665
C 446.729 453.138 446.551 458.57 446.325 463.114
C 449.379 462.898 452.445 462.929 455.509 462.931
C 456.818 462.932 458.629 462.569 459.862 462.99
C 459.86 464.124 459.867 465.252 459.851 466.386
C 456.601 466.629 453.311 466.379 450.053 466.471
C 449.02 466.5 447.158 466.198 446.244 466.665
C 445.918 476.033 446.301 485.462 446.236 494.838
C 446.21 498.554 445.673 503.104 449.361 505.299
C 451.458 506.548 454.378 506.44 456.58 505.529
C 457.717 505.059 458.868 504.021 460.107 504.179
C 460.567 504.697 461.172 505.207 461.276 505.92
C 460.81 507.382 458.206 508.564 456.949 509.255
C 451.414 512.302 441.805 513.017 438.261 506.609
C 435.994 502.51 436.603 497.518 436.594 492.999
C 436.576 484.136 436.899 475.145 436.522 466.307
C 434.002 466.395 431.418 466.464 428.904 466.266
C 428.935 465.886 428.955 465.506 428.986 465.126 Z"
opacity="1" fill="rgb(72,38,22)" fill-rule="evenodd" />

</svg>